<svg width="64" height="64" viewBox="0 0 64 64" fill="none" xmlns="http://www.w3.org/2000/svg">
<rect width="64" height="64" rx="20" fill="white"/>
<path fill-rule="evenodd" clip-rule="evenodd" d="M53.7469 32.579C53.9955 45.3163 44.053 53.7673 32.122 53.7673C21.4339 53.7673 10.2486 45.4383 10.2486 32.579V19.3073C10.2486 19.3073 18.157 19.0787 22.4281 20.1698C26.9022 21.3129 32.6192 25.0594 32.6192 25.0594C32.6192 25.0594 37.0933 21.3546 42.3131 20.0058C46.5356 18.9146 53.7469 19.3073 53.7469 19.3073V32.579ZM37.0933 49.9731L41.816 48.3432C41.816 48.3432 42.5616 39.2625 34.3591 30.6475C25.231 21.0605 13.7284 22.0325 13.7284 22.0325V25.758C13.7284 25.758 23.4013 25.5329 30.8792 33.4416C38.5846 41.5909 37.0933 49.9731 37.0933 49.9731ZM13.7284 32.3462V28.3192C13.7284 28.3192 22.6767 29.0177 28.3936 35.3043C34.8911 42.4493 34.6077 50.6716 34.6077 50.6716H30.6307C30.6307 50.6716 30.6307 42.5223 24.6652 37.3998C19.2236 32.7273 13.7284 32.3462 13.7284 32.3462ZM18.2025 44.385C13.7284 39.0297 13.7284 35.0715 13.7284 35.0715C13.7284 35.0715 19.4454 36.4685 23.1738 40.1939C26.9022 43.9193 27.6479 49.9731 27.6479 49.9731C27.6479 49.9731 22.1907 49.1586 18.2025 44.385ZM38.5846 30.6475L34.8562 27.155C34.8562 27.155 39.1098 24.2879 42.3131 23.1967C45.5164 22.1056 50.7642 22.0325 50.7642 22.0325V25.5251C50.7642 25.5251 46.7283 25.9219 44.3016 26.9221C41.8748 27.9223 38.5846 30.6475 38.5846 30.6475ZM42.3131 36.7013L39.8275 32.5102C39.8275 32.5102 42.9117 30.3926 45.0473 29.4833C47.1828 28.5741 50.7642 27.8535 50.7642 27.8535V31.5789C50.7642 31.5789 48.1888 32.6742 46.5386 33.6744C44.8885 34.6746 42.3131 36.7013 42.3131 36.7013ZM47.0358 36.7013C48.4918 35.7011 50.7642 34.8386 50.7642 34.8386C50.7642 34.8386 50.5156 38.0983 49.0243 40.8924C47.5329 43.6865 44.7987 46.0148 44.7987 46.0148C44.7987 46.0148 44.5928 43.7498 44.3016 42.5223C44.0104 41.2947 43.3073 39.7282 43.3073 39.7282C43.3073 39.7282 45.5797 37.7015 47.0358 36.7013Z" fill="#017143"/>
<path d="M49.6093 19.0148C50.7792 18.9956 51.8166 19.0104 52.5614 19.0302C52.9339 19.0401 53.2335 19.0511 53.4401 19.0598C53.5434 19.0641 53.6236 19.0681 53.678 19.0707C53.705 19.072 53.7257 19.0731 53.7397 19.0739C53.7466 19.0742 53.7521 19.0741 53.7557 19.0743L53.7601 19.0748C53.8914 19.082 53.9955 19.1839 53.9955 19.3072V32.5748L53.9994 32.8754C54.0894 45.5789 44.0941 54 32.122 54C21.3924 54 10.1765 45.7083 10.0019 32.8827L10 32.5789V19.3072C10.0001 19.1814 10.1066 19.0782 10.2408 19.0743H10.2471C10.251 19.0742 10.257 19.0741 10.2646 19.0739C10.2799 19.0735 10.3025 19.0728 10.3321 19.072C10.3915 19.0706 10.479 19.0687 10.5918 19.0666C10.8174 19.0625 11.1443 19.0579 11.5496 19.0557C12.3602 19.0513 13.4855 19.0569 14.745 19.0966C17.2573 19.1759 20.3277 19.3919 22.4936 19.9452C24.763 20.525 27.3336 21.7603 29.3262 22.842C30.3248 23.3841 31.1829 23.8902 31.7914 24.2609C32.0958 24.4463 32.3379 24.598 32.5041 24.7034C32.5407 24.7265 32.5736 24.7475 32.6027 24.7661C32.6208 24.7517 32.6405 24.736 32.6619 24.7193C32.7963 24.6139 32.9937 24.4622 33.2464 24.2763C33.7517 23.9048 34.4797 23.3958 35.3718 22.8443C37.1537 21.7428 39.6019 20.465 42.2471 19.7815C44.3905 19.2276 47.2757 19.053 49.6093 19.0148ZM13.7513 28.0872L13.7571 28.0877C13.7618 28.0881 13.7686 28.0887 13.7775 28.0895C13.7955 28.0911 13.8222 28.0934 13.8566 28.0968C13.9254 28.1036 14.0263 28.1145 14.1561 28.1304C14.4162 28.1623 14.793 28.2151 15.262 28.2978C16.1999 28.4632 17.5093 28.7495 18.9987 29.2341C21.9757 30.2028 25.6862 31.968 28.5829 35.1533C31.8635 38.7609 33.4311 42.6392 34.179 45.6137C34.553 47.1013 34.7227 48.3645 34.7985 49.2568C34.8363 49.703 34.8507 50.057 34.8557 50.3001C34.8582 50.4215 34.8582 50.5154 34.8577 50.5793C34.8574 50.6112 34.8571 50.6358 34.8567 50.6525C34.8565 50.6608 34.8563 50.6672 34.8562 50.6716V50.6789C34.8562 50.6789 34.8534 50.679 34.6077 50.6716L34.8562 50.6789C34.8518 50.8044 34.7417 50.9044 34.6077 50.9044H30.6307C30.4934 50.9044 30.3821 50.8002 30.3821 50.6716V50.6507C30.3819 50.636 30.3814 50.6134 30.3806 50.5838C30.3792 50.5247 30.3767 50.4366 30.3709 50.3223C30.3595 50.0935 30.3364 49.7595 30.2903 49.3423C30.1982 48.5075 30.0137 47.3405 29.6447 46.0153C28.9058 43.3622 27.4319 40.0913 24.4972 37.5713C21.8051 35.2597 19.1013 34.0109 17.0733 33.3402C16.0594 33.0048 15.2146 32.814 14.6251 32.7072C14.3304 32.6538 14.0991 32.6215 13.943 32.6026C13.8651 32.5931 13.8056 32.5872 13.7663 32.5835C13.7467 32.5816 13.732 32.5801 13.7226 32.5794C13.718 32.579 13.7124 32.5785 13.7124 32.5785H13.71C13.5802 32.5694 13.4799 32.468 13.4799 32.3461V28.3192C13.4799 28.2541 13.5088 28.1918 13.56 28.1477C13.6111 28.1036 13.68 28.0818 13.7493 28.0872H13.7513ZM13.977 32.1373C13.9867 32.1385 13.9968 32.1397 14.0071 32.141C14.1728 32.1611 14.4138 32.1948 14.7193 32.2501C15.3301 32.3608 16.199 32.5574 17.2389 32.9013C19.3188 33.5893 22.0836 34.8675 24.8331 37.2284C27.8638 39.8308 29.3728 43.1959 30.1253 45.898C30.5019 47.2503 30.6903 48.4409 30.7846 49.2941C30.8317 49.7209 30.8552 50.0637 30.8671 50.3005C30.8696 50.3516 30.8709 50.3978 30.8724 50.4388H34.3596C34.3592 50.4002 34.3596 50.3567 34.3586 50.3087C34.3538 50.0742 34.3398 49.7298 34.3028 49.2937C34.2287 48.421 34.0628 47.1817 33.6955 45.7206C32.9606 42.7978 31.4211 38.9926 28.2043 35.4553C25.3841 32.3541 21.762 30.6266 18.8356 29.6744C17.3735 29.1986 16.0884 28.9173 15.1698 28.7553C14.7109 28.6743 14.3437 28.6233 14.0921 28.5925C14.0506 28.5874 14.012 28.5833 13.977 28.5793V32.1373ZM14.2343 21.7765C14.5724 21.7685 15.0637 21.7682 15.681 21.7979C16.9155 21.8572 18.6552 22.0371 20.6819 22.5191C24.7364 23.4835 29.9412 25.6577 34.5445 30.4925C38.6782 34.834 40.5587 39.2952 41.4053 42.6728C41.8285 44.3614 41.9934 45.7795 42.0524 46.777C42.0819 47.2758 42.085 47.6697 42.0805 47.9398C42.0783 48.0749 42.0744 48.179 42.0708 48.25C42.069 48.2855 42.0672 48.3128 42.066 48.3314C42.0654 48.3407 42.0649 48.3478 42.0645 48.3528L42.064 48.3587V48.361C42.0566 48.4517 41.9931 48.53 41.9019 48.5615L37.1792 50.1914C37.0961 50.22 37.0032 50.2051 36.935 50.1523C36.8668 50.0994 36.8336 50.0167 36.8481 49.9349L36.8486 49.9303C36.8492 49.9269 36.8503 49.9213 36.8515 49.914C36.8539 49.8991 36.8574 49.8764 36.8617 49.8462C36.8704 49.7854 36.8822 49.694 36.8947 49.5743C36.9199 49.3347 36.9478 48.9815 36.9574 48.5315C36.9765 47.6313 36.923 46.3442 36.6311 44.8043C36.0475 41.7253 34.511 37.6334 30.6933 33.5958C26.9918 29.6811 22.7479 27.78 19.4289 26.8571C17.7691 26.3956 16.3412 26.1789 15.33 26.0777C14.8246 26.0271 14.4235 26.0054 14.1498 25.9962C14.013 25.9917 13.9078 25.9906 13.8377 25.9903C13.8027 25.9902 13.7763 25.9902 13.759 25.9903C13.7505 25.9904 13.7442 25.9907 13.7401 25.9908H13.7343C13.6674 25.9923 13.6025 25.9686 13.5546 25.9248C13.5067 25.881 13.4799 25.8207 13.4799 25.758V22.0325C13.4799 21.9121 13.578 21.8114 13.7061 21.8006L13.7284 22.0325C13.7061 21.8006 13.7061 21.8006 13.7061 21.8006H13.709C13.709 21.8006 13.7132 21.7999 13.7163 21.7997C13.7225 21.7992 13.7314 21.7987 13.743 21.7979C13.7663 21.7963 13.8009 21.794 13.8454 21.7915C13.9346 21.7866 14.0654 21.7805 14.2343 21.7765ZM13.7925 34.8464L13.7964 34.8473C13.7995 34.848 13.8038 34.8495 13.8095 34.8509C13.8211 34.8538 13.838 34.8579 13.86 34.8636C13.9041 34.8751 13.969 34.8923 14.0522 34.9155C14.2187 34.9617 14.4597 35.0318 14.7601 35.1274C15.3608 35.3187 16.2001 35.6128 17.1568 36.0242C19.0674 36.8457 21.4607 38.1416 23.3554 40.0347C25.2565 41.9344 26.389 44.4176 27.0464 46.4119C27.3759 47.4112 27.5878 48.293 27.7173 48.9253C27.7821 49.2414 27.8261 49.4955 27.8542 49.6711C27.8683 49.759 27.8783 49.8274 27.8848 49.874C27.8881 49.8971 27.891 49.915 27.8926 49.9272C27.8934 49.9332 27.8936 49.938 27.8941 49.9413L27.8945 49.9449L27.895 50.0004C27.8883 50.0535 27.8619 50.1036 27.8198 50.1414C27.7777 50.1791 27.7233 50.2015 27.6664 50.2055L27.6086 50.2032L27.6033 50.2023C27.6001 50.2018 27.5958 50.2009 27.5901 50.2C27.5786 50.1982 27.5617 50.1956 27.5401 50.1918C27.497 50.1843 27.434 50.1726 27.3532 50.1564C27.1916 50.1238 26.9579 50.0722 26.6658 49.9954C26.0814 49.8417 25.262 49.5869 24.3171 49.1809C22.4276 48.3691 20.0311 46.9514 18.0069 44.5287C15.7511 41.8286 14.6188 39.4749 14.0508 37.79C13.7669 36.9479 13.6239 36.2734 13.5522 35.8068C13.5163 35.5735 13.4982 35.3922 13.4891 35.2679C13.4845 35.2059 13.4825 35.1581 13.4813 35.1251C13.4807 35.1087 13.48 35.0959 13.4799 35.0869V35.0719L13.7284 35.0715L13.7925 34.8464ZM13.9993 35.3875C14.0093 35.4842 14.0232 35.6023 14.0445 35.7404C14.1126 36.1834 14.2493 36.8332 14.5246 37.65C15.0751 39.2829 16.18 41.5862 18.3982 44.2413C20.3622 46.592 22.6883 47.9687 24.5244 48.7575C25.4423 49.1519 26.2369 49.3988 26.8003 49.547C27.0224 49.6054 27.2088 49.6473 27.3523 49.6779C27.3249 49.5119 27.285 49.2862 27.229 49.0126C27.1021 48.3935 26.8946 47.5289 26.5716 46.5492C25.9241 44.5852 24.8194 42.1788 22.9922 40.3531C21.1585 38.5209 18.829 37.2554 16.9491 36.4471C16.0106 36.0436 15.1875 35.7556 14.5999 35.5685C14.3563 35.491 14.1532 35.4313 13.9993 35.3875ZM14.2469 22.2422C14.1405 22.2447 14.0502 22.2489 13.977 22.2522V25.5269C14.032 25.5279 14.0956 25.5286 14.1673 25.531C14.4518 25.5405 14.8649 25.5628 15.3829 25.6147C16.419 25.7184 17.877 25.9402 19.5701 26.411C22.957 27.3527 27.2887 29.2935 31.0652 33.2874C34.9527 37.399 36.5234 41.573 37.1205 44.7224C37.4189 46.2965 37.4742 47.6145 37.4545 48.5406C37.4446 49.0036 37.4162 49.3691 37.3899 49.6197L37.3894 49.6225L41.5757 48.1781C41.5783 48.1154 41.5818 48.0332 41.5834 47.9326C41.5877 47.6725 41.585 47.2896 41.5562 46.8025C41.4987 45.8282 41.3374 44.4376 40.9217 42.7792C40.0905 39.4628 38.2425 35.076 34.1736 30.8026C29.6489 26.0504 24.5383 23.9171 20.5595 22.9707C18.5697 22.4974 16.8632 22.3211 15.6558 22.2631C15.0522 22.2341 14.5735 22.2345 14.2469 22.2422ZM50.6705 34.6231C50.75 34.5929 50.8409 34.6031 50.9103 34.6504C50.9797 34.6976 51.0183 34.7749 51.0123 34.855L51.0118 34.8582C51.0118 34.8582 51.0116 34.8626 51.0113 34.8659C51.0108 34.8726 51.01 34.8824 51.0089 34.895C51.0066 34.9205 51.0032 34.9581 50.9982 35.0064C50.9883 35.103 50.9723 35.2434 50.9487 35.4203C50.9015 35.7741 50.8228 36.2747 50.6972 36.8632C50.4463 38.0383 50.0059 39.5741 49.2466 40.9966C48.4876 42.4185 47.4159 43.716 46.5391 44.6547C46.0999 45.1249 45.7078 45.5071 45.425 45.772C45.2836 45.9044 45.1696 46.0077 45.0905 46.0781C45.0509 46.1133 45.0198 46.1402 44.9987 46.1585C44.9883 46.1676 44.9805 46.1747 44.9749 46.1795C44.9722 46.1819 44.9681 46.1849 44.9681 46.1849L44.9662 46.1867C44.8963 46.2462 44.7959 46.2641 44.7079 46.2318C44.6309 46.2035 44.5747 46.1413 44.5565 46.0671L44.5511 46.0344V46.0344L44.5506 46.0285C44.5502 46.0243 44.5495 46.0177 44.5487 46.0094C44.5471 45.9927 44.545 45.968 44.5419 45.9362C44.5357 45.8723 44.5266 45.7794 44.5147 45.6642C44.491 45.4337 44.456 45.1133 44.4123 44.7552C44.3244 44.0359 44.2014 43.1735 44.0588 42.5728C43.9168 41.974 43.6727 41.2867 43.4617 40.7446C43.3567 40.4747 43.2606 40.2428 43.1908 40.0784C43.1559 39.9962 43.1278 39.9306 43.1083 39.886C43.0986 39.8639 43.091 39.847 43.086 39.8355C43.0834 39.8298 43.0814 39.8252 43.0801 39.8224L43.0787 39.8192C43.0387 39.73 43.0612 39.6262 43.136 39.5595L43.1379 39.5581L43.1428 39.5536C43.1472 39.5497 43.1537 39.5439 43.1622 39.5363C43.1793 39.5211 43.2048 39.4987 43.2374 39.4699C43.3027 39.4123 43.3974 39.3288 43.5156 39.2257C43.7522 39.0194 44.083 38.7337 44.4594 38.4167C45.21 37.7845 46.1499 37.021 46.8887 36.5135C47.635 36.0008 48.5831 35.5277 49.3374 35.1852C49.716 35.0132 50.0489 34.8729 50.287 34.7754C50.406 34.7267 50.5016 34.689 50.5676 34.6631C50.6006 34.6501 50.6263 34.6398 50.6438 34.6331C50.6524 34.6298 50.6592 34.6275 50.6637 34.6258L50.6705 34.6231ZM50.4734 35.2074C50.2409 35.3027 49.9194 35.4387 49.5544 35.6044C48.8086 35.9432 47.8926 36.4016 47.1829 36.8891C46.4656 37.3819 45.5415 38.132 44.7919 38.7632C44.4182 39.078 44.0895 39.3614 43.8545 39.5663C43.7505 39.657 43.6647 39.7321 43.6015 39.7878C43.6163 39.8221 43.6336 39.8616 43.6525 39.906C43.7236 40.0737 43.8217 40.31 43.9287 40.585C44.1421 41.1331 44.3952 41.8431 44.5443 42.4718C44.693 43.0985 44.8186 43.9823 44.9065 44.7024C44.9442 45.0111 44.9746 45.2917 44.9978 45.5119C45.0217 45.4896 45.0475 45.4671 45.0735 45.4428C45.35 45.1838 45.7346 44.8093 46.1653 44.3481C47.0284 43.4241 48.0696 42.1603 48.8019 40.7883C49.534 39.4168 49.9636 37.9255 50.2098 36.7723C50.3327 36.1966 50.4095 35.7071 50.4554 35.3625C50.4628 35.3071 50.4675 35.2551 50.4734 35.2074ZM50.7118 27.6257C50.7852 27.6109 50.8621 27.6283 50.9205 27.6725C50.9788 27.7167 51.0128 27.7832 51.0128 27.8535V31.5789C51.0128 31.6702 50.9558 31.753 50.8671 31.7908L50.8652 31.7917L50.8385 31.8031C50.8195 31.8112 50.791 31.8232 50.7545 31.839C50.6814 31.8707 50.5752 31.9175 50.4423 31.9764C50.1764 32.0941 49.8046 32.2613 49.3816 32.4598C48.5336 32.8576 47.4869 33.377 46.6736 33.87C45.8594 34.3635 44.8112 35.1142 43.9618 35.7454C43.5381 36.0603 43.1655 36.344 42.8991 36.549C42.7659 36.6515 42.6592 36.7343 42.5859 36.7914C42.5494 36.8199 42.521 36.8419 42.5019 36.8569C42.4924 36.8643 42.4849 36.8703 42.4801 36.8741C42.4778 36.876 42.4747 36.8782 42.4747 36.8782L42.4733 36.8791C42.4165 36.9239 42.3409 36.9427 42.2679 36.9301C42.195 36.9174 42.1316 36.8753 42.0956 36.8146L39.61 32.6235C39.5492 32.521 39.5794 32.3918 39.6804 32.3224L39.6828 32.3206C39.6828 32.3206 39.6871 32.3181 39.6901 32.3161C39.6961 32.312 39.7048 32.3057 39.7163 32.2979C39.7397 32.282 39.7742 32.2583 39.8187 32.2283C39.9079 32.1682 40.0378 32.0819 40.1998 31.975C40.5238 31.7613 40.978 31.4667 41.4994 31.1437C42.539 30.4996 43.8577 29.7342 44.9444 29.2714C46.0314 28.8086 47.477 28.3971 48.6417 28.1027C49.2259 27.955 49.7431 27.8361 50.1142 27.7539C50.2996 27.7128 50.4487 27.6805 50.5516 27.6589C50.6029 27.648 50.6429 27.6399 50.67 27.6343C50.6836 27.6315 50.6941 27.6294 50.7011 27.6279C50.7046 27.6272 50.7093 27.6266 50.7093 27.6266L50.7118 27.6257ZM50.2282 28.2068C49.8611 28.2882 49.3493 28.4059 48.7713 28.552C47.6115 28.8452 46.1986 29.2489 45.1502 29.6953C44.1014 30.1419 42.8101 30.89 41.7737 31.5321C41.2572 31.8521 40.8068 32.1439 40.4858 32.3556C40.3496 32.4454 40.237 32.521 40.1522 32.578L42.3849 36.3425C42.442 36.2983 42.5086 36.2469 42.5835 36.1893C42.8515 35.983 43.2261 35.6975 43.6525 35.3807C44.5033 34.7485 45.5678 33.9855 46.4037 33.4789C47.2405 32.9717 48.3065 32.443 49.1587 32.0432C49.5858 31.8429 49.9612 31.6741 50.2297 31.5553C50.3467 31.5035 50.4436 31.461 50.5156 31.4297V28.1445C50.4341 28.162 50.3375 28.1826 50.2282 28.2068ZM13.7925 34.8464L13.7284 35.0715L13.4799 35.0719C13.4799 34.9998 13.5156 34.9314 13.5765 34.8873C13.6374 34.8432 13.718 34.8282 13.7925 34.8464ZM50.7603 21.7997C50.8268 21.7988 50.8911 21.8229 50.9385 21.8666C50.9859 21.9103 51.0128 21.9702 51.0128 22.0325V25.5251C51.0128 25.6443 50.9165 25.7441 50.7899 25.7566L50.7875 25.757C50.7875 25.757 50.7829 25.7576 50.7793 25.758C50.7718 25.7587 50.7605 25.7596 50.7458 25.7611C50.7162 25.7642 50.672 25.7689 50.6152 25.7752C50.5013 25.7879 50.3357 25.8072 50.1292 25.8334C49.7158 25.8859 49.139 25.9663 48.4873 26.0777C47.179 26.3012 45.5871 26.6468 44.4016 27.1354C43.2172 27.6236 41.8076 28.5403 40.6838 29.3451C40.1245 29.7457 39.6401 30.1152 39.2959 30.3847C39.1238 30.5194 38.9868 30.6291 38.8929 30.7048C38.846 30.7427 38.8099 30.7723 38.7856 30.7922C38.7737 30.802 38.7645 30.8094 38.7585 30.8144C38.7554 30.8169 38.7517 30.8204 38.7517 30.8204L38.7497 30.8217C38.6513 30.9032 38.5018 30.8992 38.4089 30.8122L34.6805 27.3196C34.629 27.2713 34.6028 27.2044 34.6086 27.1363C34.6145 27.0683 34.6519 27.0057 34.7111 26.9658L34.7145 26.9635C34.7145 26.9635 34.7196 26.9599 34.7237 26.9572C34.732 26.9516 34.7444 26.9434 34.7606 26.9326C34.7929 26.9111 34.8406 26.8795 34.9023 26.8389C35.0258 26.7578 35.2056 26.641 35.431 26.4974C35.8819 26.2102 36.5167 25.8159 37.252 25.3873C38.7188 24.5324 40.6011 23.5322 42.2281 22.978C43.8606 22.4219 45.9994 22.1289 47.7159 21.9739C48.577 21.8961 49.3375 21.8524 49.8826 21.8284C50.1552 21.8163 50.3743 21.8093 50.5254 21.8052C50.6008 21.8031 50.6594 21.8014 50.6991 21.8006C50.7189 21.8002 50.734 21.8003 50.7443 21.8002C50.7495 21.8001 50.7564 21.7997 50.7564 21.7997H50.7603ZM49.9059 22.2936C49.3669 22.3173 48.6147 22.3604 47.7635 22.4373C46.0554 22.5916 43.9687 22.8805 42.398 23.4155C40.8218 23.9524 38.9755 24.9311 37.5147 25.7825C36.7862 26.2071 36.1574 26.5981 35.7107 26.8826C35.5177 27.0055 35.3588 27.1086 35.2407 27.1859L38.5963 30.3292C38.6902 30.2536 38.8195 30.1508 38.9774 30.0273C39.3258 29.7545 39.816 29.3805 40.3824 28.9749C41.5103 28.1671 42.9593 27.2209 44.2016 26.7089C45.4427 26.1973 47.0823 25.8441 48.3985 25.6193C49.0591 25.5064 49.6431 25.425 50.0622 25.3719C50.2483 25.3482 50.4021 25.3301 50.5156 25.3173V22.2708C50.3683 22.275 50.161 22.2823 49.9059 22.2936ZM10.4991 32.8763C10.6699 45.4275 21.6423 53.5343 32.122 53.5343C43.9177 53.5343 53.7442 45.1869 53.4984 32.5835V19.5282C53.4734 19.5271 53.4465 19.5262 53.4178 19.525C53.2136 19.5164 52.9168 19.5057 52.5473 19.4959C51.8082 19.4762 50.7786 19.4609 49.618 19.48C47.2903 19.5182 44.4582 19.6931 42.3791 20.2303C39.8045 20.8957 37.4057 22.1446 35.6456 23.2327C34.7668 23.7759 34.0499 24.2772 33.5532 24.6424C33.3049 24.825 33.112 24.9738 32.9813 25.0763C32.916 25.1275 32.866 25.1673 32.8328 25.194C32.8162 25.2074 32.8036 25.2174 32.7954 25.2241C32.7913 25.2274 32.7866 25.2318 32.7866 25.2318L32.7842 25.2336C32.6982 25.3049 32.5705 25.3121 32.4764 25.2504L32.473 25.2477C32.4704 25.246 32.4662 25.2434 32.4609 25.24C32.4502 25.233 32.434 25.2227 32.4128 25.2091C32.3704 25.1817 32.3074 25.141 32.2254 25.089C32.0615 24.9851 31.822 24.8352 31.5205 24.6515C30.9174 24.2841 30.0664 23.7823 29.0767 23.2449C27.0923 22.1677 24.5674 20.9578 22.3626 20.3945C20.2575 19.8567 17.2382 19.6415 14.7285 19.5623C13.4771 19.5228 12.3583 19.517 11.5525 19.5214C11.1497 19.5235 10.8251 19.5282 10.6015 19.5323C10.5638 19.533 10.529 19.5334 10.4971 19.5341V32.5789L10.4991 32.8763Z" fill="#017143"/>
<path d="M26.592 13.4971C26.7788 13.5085 26.9609 13.524 27.1377 13.5435C28.7287 13.7194 29.9157 14.2265 30.6986 15.0647C31.4815 15.9029 31.8603 17.0722 31.8351 18.5727C31.8323 18.7394 31.8246 18.9103 31.8118 19.0852C31.8073 19.1395 31.8026 19.1923 31.7905 19.238C31.7781 19.2838 31.7578 19.3206 31.7259 19.3467C31.6939 19.3729 31.6523 19.3869 31.6021 19.3922C31.5522 19.3973 31.496 19.3948 31.438 19.3917C31.2512 19.3804 31.0691 19.3649 30.8923 19.3454C29.3014 19.1695 28.1143 18.6624 27.3314 17.8242C26.5485 16.986 26.1698 15.8166 26.1949 14.3161C26.1977 14.1494 26.2054 13.9785 26.2182 13.8036C26.2227 13.7493 26.2275 13.6965 26.2396 13.6508C26.2519 13.605 26.2722 13.5683 26.3041 13.5421C26.3361 13.516 26.3778 13.502 26.4279 13.4967C26.4779 13.4915 26.534 13.4941 26.592 13.4971Z" fill="#017143"/>
<path d="M38.1492 13.4971C37.9624 13.5085 37.7803 13.524 37.6035 13.5435C36.0125 13.7194 34.8255 14.2265 34.0426 15.0647C33.2597 15.9029 32.8809 17.0722 32.9061 18.5727C32.9089 18.7394 32.9166 18.9103 32.9294 19.0852C32.9339 19.1395 32.9386 19.1923 32.9507 19.238C32.9631 19.2838 32.9834 19.3206 33.0153 19.3467C33.0473 19.3729 33.0889 19.3869 33.1391 19.3922C33.189 19.3973 33.2452 19.3948 33.3032 19.3917C33.4899 19.3804 33.6721 19.3649 33.8489 19.3454C35.4398 19.1695 36.6269 18.6624 37.4098 17.8242C38.1927 16.986 38.5714 15.8166 38.5463 14.3161C38.5435 14.1494 38.5358 13.9785 38.523 13.8036C38.5185 13.7493 38.5137 13.6965 38.5016 13.6508C38.4893 13.605 38.469 13.5683 38.4371 13.5421C38.4051 13.516 38.3634 13.502 38.3133 13.4967C38.2633 13.4915 38.2072 13.4941 38.1492 13.4971Z" fill="#017143"/>
<path d="M32.3706 10C32.4167 10 32.4615 10.0168 32.5036 10.0464C32.5456 10.0759 32.5828 10.116 32.6192 10.1578C32.6854 10.2354 32.7484 10.313 32.808 10.3906C33.3449 11.0892 33.6134 11.7877 33.6134 12.4862C33.6134 13.1847 33.3449 13.8832 32.808 14.5817C32.7484 14.6593 32.6854 14.737 32.6192 14.8146C32.5828 14.8563 32.5456 14.8964 32.5036 14.926C32.4615 14.9555 32.4167 14.9724 32.3706 14.9724C32.3244 14.9724 32.2797 14.9555 32.2376 14.926C32.1956 14.8964 32.1583 14.8563 32.122 14.8146C32.0558 14.737 31.9928 14.6593 31.9332 14.5817C31.3963 13.8832 31.1278 13.1847 31.1278 12.4862C31.1278 11.7877 31.3963 11.0892 31.9332 10.3906C31.9928 10.313 32.0558 10.2354 32.122 10.1578C32.1583 10.116 32.1956 10.0759 32.2376 10.0464C32.2797 10.0168 32.3244 10 32.3706 10Z" fill="#017143"/>
</svg>
